<svg width="100" height="50" fill="none" xmlns="http://www.w3.org/2000/svg"><path d="M77.252.415H19.51v49.17h57.742l22.396-24.59z" fill="#00a651"/><path d="M37.287 45.884c.557-.041 1.014-.115 1.348-.235l.008-.002.007-.003c.342-.137.637-.329.822-.603.169-.243.296-.525.387-.839l2.388-7.369h14.12l2.538 7.587c.09.29.208.547.365.756.193.257.495.423.834.537l.012.004.012.003c.346.092.814.144 1.386.165a37.83 37.83 0 0 0 2.443.06c.991 0 1.782-.03 2.368-.092.583-.042 1.093-.17 1.42-.468l.007-.007.007-.007c.344-.343.43-.815.358-1.316-.066-.46-.226-1.063-.47-1.797l-.003-.006L55.537 7.534c-.13-.408-.298-.757-.519-1.03-.239-.322-.62-.516-1.06-.628-.435-.135-1.018-.206-1.729-.227a52.95 52.95 0 0 0-2.863-.06c-1.03 0-1.865.02-2.503.06-.637.021-1.171.094-1.586.23-.397.119-.732.319-.96.627a3.215 3.215 0 0 0-.484.93l-.001.002-12.08 34.754v.002c-.245.715-.406 1.309-.472 1.77-.07.496.003.96.303 1.32l.006.006.006.007c.303.334.79.491 1.346.555.548.063 1.292.094 2.226.094.873 0 1.58-.02 2.12-.062zm0 0-.03-.409.03.409zm16.96-15.986h-9.974l4.987-14.987z" fill="#fff" stroke="#000" stroke-width=".82" transform="matrix(1.01831 0 0 1.01212 -.556 -.98)"/><path d="M75.993 1.38H1.308a.35.35 0 0 0-.35.35v47.845a.35.35 0 0 0 .35.385h74.685a.35.35 0 0 0 .257-.111l21.993-23.953a.35.35 0 0 0 0-.479L76.25 1.465a.35.35 0 0 0-.257-.085z" stroke="#000" stroke-width=".82" stroke-linejoin="round" transform="matrix(1.01831 0 0 1.01212 -.556 -.98)"/><path d="M10.252 30.884V20.678M12.955 23.338l-2.703-2.703-2.712 2.703" stroke="#000" stroke-width="1.5" stroke-linecap="round" stroke-linejoin="round" transform="matrix(1.01831 0 0 1.01212 -.556 -.98)"/><path d="M14.434 14.66c.068.204.11.364.127.483.017.118-.006.208-.068.27-.062.057-.173.09-.332.102a6.545 6.545 0 0 1-.655.025c-.289 0-.516-.006-.68-.017a1.757 1.757 0 0 1-.366-.042.358.358 0 0 1-.179-.11.577.577 0 0 1-.085-.178l-.74-2.198H7.322l-.698 2.14a.672.672 0 0 1-.093.202.373.373 0 0 1-.179.127c-.08.028-.196.048-.349.059a8.086 8.086 0 0 1-.587.017c-.26 0-.465-.009-.612-.025-.148-.017-.25-.057-.306-.119-.057-.067-.077-.16-.06-.279.017-.118.06-.276.128-.473L7.96 4.937a.78.78 0 0 1 .119-.228.387.387 0 0 1 .213-.135c.102-.034.24-.054.416-.06.176-.01.409-.016.698-.016.335 0 .601.005.8.016.198.006.351.026.459.06.113.028.193.073.238.135a.76.76 0 0 1 .128.254zM9.38 6.638h-.008l-1.557 4.65h3.122zM14.246 36.469c0 .163-.008.304-.025.422a1.11 1.11 0 0 1-.06.288.277.277 0 0 1-.093.144.193.193 0 0 1-.128.042c-.074 0-.193-.05-.357-.152a5.335 5.335 0 0 0-.655-.33 7.033 7.033 0 0 0-.978-.33 5.037 5.037 0 0 0-1.31-.152c-.534 0-1.016.093-1.447.28-.43.18-.8.439-1.106.777a3.411 3.411 0 0 0-.706 1.209 4.666 4.666 0 0 0-.246 1.556c0 .625.082 1.178.246 1.657.17.473.406.87.706 1.192.301.321.661.564 1.08.727.426.164.894.246 1.404.246.25 0 .497-.029.74-.085.244-.056.471-.141.681-.254V41.17H9.908c-.102 0-.182-.062-.238-.186-.057-.13-.085-.347-.085-.651 0-.158.005-.29.017-.398.017-.107.04-.191.068-.253a.325.325 0 0 1 .102-.144.204.204 0 0 1 .136-.05h3.717c.091 0 .17.016.239.05a.444.444 0 0 1 .187.135.6.6 0 0 1 .127.229.933.933 0 0 1 .043.295v4.355c0 .169-.031.318-.094.448-.056.124-.178.223-.365.296-.182.073-.409.15-.681.228a9.366 9.366 0 0 1-1.735.33 9.4 9.4 0 0 1-.894.042c-.879 0-1.667-.124-2.365-.372a4.861 4.861 0 0 1-1.76-1.09 4.78 4.78 0 0 1-1.106-1.742c-.256-.688-.383-1.466-.383-2.334 0-.896.136-1.7.408-2.41a5.056 5.056 0 0 1 1.157-1.817c.5-.502 1.1-.885 1.804-1.15.708-.265 1.497-.398 2.364-.398.477 0 .91.034 1.302.102a6.52 6.52 0 0 1 1.02.236c.296.09.54.19.732.296.193.107.326.2.4.28.08.078.136.191.17.338.034.14.051.352.051.634z" fill="#000"/></svg>